<svg viewBox="0 0 1200 800" xmlns="http://www.w3.org/2000/svg">
  <defs>
    <linearGradient id="bg" x1="0%" y1="0%" x2="100%" y2="100%">
      <stop offset="0%" style="stop-color:#f8fafc;stop-opacity:1" />
      <stop offset="100%" style="stop-color:#e2e8f0;stop-opacity:1" />
    </linearGradient>
    <linearGradient id="sidebar" x1="0%" y1="0%" x2="100%" y2="0%">
      <stop offset="0%" style="stop-color:#1e293b;stop-opacity:1" />
      <stop offset="100%" style="stop-color:#334155;stop-opacity:1" />
    </linearGradient>
  </defs>
  
  <!-- Background -->
  <rect width="1200" height="800" fill="url(#bg)"/>
  
  <!-- Sidebar -->
  <rect x="0" y="0" width="240" height="800" fill="url(#sidebar)"/>
  
  <!-- Logo Area -->
  <rect x="20" y="20" width="200" height="60" fill="#3b82f6" rx="8"/>
  <text x="120" y="45" text-anchor="middle" fill="white" font-family="Arial, sans-serif" font-size="16" font-weight="bold">Ogelo</text>
  <text x="120" y="62" text-anchor="middle" fill="white" font-family="Arial, sans-serif" font-size="12">Water Utility</text>
  
  <!-- Navigation Items -->
  <rect x="20" y="120" width="200" height="40" fill="#3b82f6" rx="6"/>
  <text x="30" y="142" fill="white" font-family="Arial, sans-serif" font-size="14">📊 Dashboard</text>
  
  <rect x="20" y="170" width="200" height="35" fill="transparent" rx="6"/>
  <text x="30" y="190" fill="#94a3b8" font-family="Arial, sans-serif" font-size="14">💧 Water Usage</text>
  
  <rect x="20" y="210" width="200" height="35" fill="transparent" rx="6"/>
  <text x="30" y="230" fill="#94a3b8" font-family="Arial, sans-serif" font-size="14">🚨 Leaks</text>
  
  <rect x="20" y="250" width="200" height="35" fill="transparent" rx="6"/>
  <text x="30" y="270" fill="#94a3b8" font-family="Arial, sans-serif" font-size="14">🔧 Maintenance</text>
  
  <rect x="20" y="290" width="200" height="35" fill="transparent" rx="6"/>
  <text x="30" y="310" fill="#94a3b8" font-family="Arial, sans-serif" font-size="14">📊 Reports</text>
  
  <!-- User Profile -->
  <rect x="20" y="720" width="200" height="60" fill="#475569" rx="6"/>
  <circle cx="50" cy="745" r="15" fill="#3b82f6"/>
  <text x="50" y="750" text-anchor="middle" fill="white" font-family="Arial, sans-serif" font-size="12" font-weight="bold">AO</text>
  <text x="75" y="742" fill="white" font-family="Arial, sans-serif" font-size="12" font-weight="bold">Augustine Ogelo</text>
  <text x="75" y="756" fill="#94a3b8" font-family="Arial, sans-serif" font-size="10">MIS Analyst</text>
  
  <!-- Main Content Area -->
  <rect x="260" y="0" width="940" height="800" fill="white"/>
  
  <!-- Header -->
  <rect x="280" y="20" width="900" height="60" fill="white"/>
  <text x="300" y="45" fill="#1e293b" font-family="Arial, sans-serif" font-size="24" font-weight="bold">Water Utility Dashboard</text>
  <text x="300" y="65" fill="#64748b" font-family="Arial, sans-serif" font-size="14">Real-time monitoring and analytics</text>
  
  <!-- KPI Cards -->
  <rect x="300" y="100" width="200" height="120" fill="white" stroke="#e2e8f0" stroke-width="1" rx="8"/>
  <text x="320" y="125" fill="#64748b" font-family="Arial, sans-serif" font-size="12">Total Usage Today</text>
  <text x="320" y="150" fill="#1e293b" font-family="Arial, sans-serif" font-size="32" font-weight="bold">2.4M</text>
  <text x="320" y="170" fill="#10b981" font-family="Arial, sans-serif" font-size="14">+12% from yesterday</text>
  <text x="320" y="200" fill="#64748b" font-family="Arial, sans-serif" font-size="12">Gallons</text>
  
  <rect x="520" y="100" width="200" height="120" fill="white" stroke="#e2e8f0" stroke-width="1" rx="8"/>
  <text x="540" y="125" fill="#64748b" font-family="Arial, sans-serif" font-size="12">System Pressure</text>
  <text x="540" y="150" fill="#1e293b" font-family="Arial, sans-serif" font-size="32" font-weight="bold">45.2</text>
  <text x="540" y="170" fill="#10b981" font-family="Arial, sans-serif" font-size="14">Normal</text>
  <text x="540" y="200" fill="#64748b" font-family="Arial, sans-serif" font-size="12">PSI</text>
  
  <rect x="740" y="100" width="200" height="120" fill="white" stroke="#e2e8f0" stroke-width="1" rx="8"/>
  <text x="760" y="125" fill="#64748b" font-family="Arial, sans-serif" font-size="12">Active Leaks</text>
  <text x="760" y="150" fill="#1e293b" font-family="Arial, sans-serif" font-size="32" font-weight="bold">3</text>
  <text x="760" y="170" fill="#f59e0b" font-family="Arial, sans-serif" font-size="14">2 High Priority</text>
  <text x="760" y="200" fill="#64748b" font-family="Arial, sans-serif" font-size="12">Incidents</text>
  
  <rect x="960" y="100" width="200" height="120" fill="white" stroke="#e2e8f0" stroke-width="1" rx="8"/>
  <text x="980" y="125" fill="#64748b" font-family="Arial, sans-serif" font-size="12">Maintenance Tasks</text>
  <text x="980" y="150" fill="#1e293b" font-family="Arial, sans-serif" font-size="32" font-weight="bold">12</text>
  <text x="980" y="170" fill="#3b82f6" font-family="Arial, sans-serif" font-size="14">4 Due Today</text>
  <text x="980" y="200" fill="#64748b" font-family="Arial, sans-serif" font-size="12">Scheduled</text>
  
  <!-- Charts Section -->
  <rect x="300" y="250" width="440" height="300" fill="white" stroke="#e2e8f0" stroke-width="1" rx="8"/>
  <text x="320" y="275" fill="#1e293b" font-family="Arial, sans-serif" font-size="16" font-weight="bold">Water Usage Trends</text>
  
  <!-- Chart Area -->
  <rect x="320" y="290" width="400" height="200" fill="#f8fafc" rx="4"/>
  <polyline points="340,450 370,420 400,380 430,400 460,360 490,340 520,320 550,300 580,290 610,310 640,330 670,350 700,370" 
            fill="none" stroke="#3b82f6" stroke-width="3"/>
  <text x="320" y="510" fill="#64748b" font-family="Arial, sans-serif" font-size="12">7-Day Usage Pattern</text>
  
  <!-- Recent Activities -->
  <rect x="760" y="250" width="400" height="300" fill="white" stroke="#e2e8f0" stroke-width="1" rx="8"/>
  <text x="780" y="275" fill="#1e293b" font-family="Arial, sans-serif" font-size="16" font-weight="bold">Recent Activities</text>
  
  <!-- Activity Items -->
  <rect x="780" y="295" width="360" height="40" fill="#fef2f2" rx="4"/>
  <circle cx="800" cy="315" r="4" fill="#ef4444"/>
  <text x="815" y="310" fill="#1e293b" font-family="Arial, sans-serif" font-size="12" font-weight="bold">Leak detected at Pump Station 3</text>
  <text x="815" y="325" fill="#64748b" font-family="Arial, sans-serif" font-size="10">2 minutes ago</text>
  
  <rect x="780" y="345" width="360" height="40" fill="#f0fdf4" rx="4"/>
  <circle cx="800" cy="365" r="4" fill="#10b981"/>
  <text x="815" y="360" fill="#1e293b" font-family="Arial, sans-serif" font-size="12" font-weight="bold">Maintenance completed at Filter Unit A</text>
  <text x="815" y="375" fill="#64748b" font-family="Arial, sans-serif" font-size="10">15 minutes ago</text>
  
  <rect x="780" y="395" width="360" height="40" fill="#eff6ff" rx="4"/>
  <circle cx="800" cy="415" r="4" fill="#3b82f6"/>
  <text x="815" y="410" fill="#1e293b" font-family="Arial, sans-serif" font-size="12" font-weight="bold">Quality test results updated</text>
  <text x="815" y="425" fill="#64748b" font-family="Arial, sans-serif" font-size="10">1 hour ago</text>
  
  <!-- Today's Tasks -->
  <rect x="300" y="570" width="860" height="200" fill="white" stroke="#e2e8f0" stroke-width="1" rx="8"/>
  <text x="320" y="595" fill="#1e293b" font-family="Arial, sans-serif" font-size="16" font-weight="bold">Today's Maintenance Tasks</text>
  
  <!-- Task Items -->
  <rect x="320" y="615" width="820" height="30" fill="#f8fafc" rx="4"/>
  <circle cx="340" cy="630" r="6" fill="#f59e0b"/>
  <text x="360" y="625" fill="#1e293b" font-family="Arial, sans-serif" font-size="12" font-weight="bold">Inspect Main Valve - North District</text>
  <text x="360" y="638" fill="#64748b" font-family="Arial, sans-serif" font-size="10">Assigned to: John Smith • Due: 2:00 PM</text>
  <text x="1080" y="635" fill="#f59e0b" font-family="Arial, sans-serif" font-size="12" font-weight="bold">In Progress</text>
  
  <rect x="320" y="655" width="820" height="30" fill="#f8fafc" rx="4"/>
  <circle cx="340" cy="670" r="6" fill="#10b981"/>
  <text x="360" y="665" fill="#1e293b" font-family="Arial, sans-serif" font-size="12" font-weight="bold">Chemical Level Check - Treatment Plant</text>
  <text x="360" y="678" fill="#64748b" font-family="Arial, sans-serif" font-size="10">Assigned to: Sarah Johnson • Due: 4:00 PM</text>
  <text x="1080" y="675" fill="#10b981" font-family="Arial, sans-serif" font-size="12" font-weight="bold">Completed</text>
  
  <rect x="320" y="695" width="820" height="30" fill="#f8fafc" rx="4"/>
  <circle cx="340" cy="710" r="6" fill="#64748b"/>
  <text x="360" y="705" fill="#1e293b" font-family="Arial, sans-serif" font-size="12" font-weight="bold">Pump Efficiency Test - Station 2</text>
  <text x="360" y="718" fill="#64748b" font-family="Arial, sans-serif" font-size="10">Assigned to: Mike Davis • Due: 6:00 PM</text>
  <text x="1080" y="715" fill="#64748b" font-family="Arial, sans-serif" font-size="12" font-weight="bold">Pending</text>
</svg>